<svg width="443" height="64" viewBox="0 0 443 64" fill="none" xmlns="http://www.w3.org/2000/svg">
<path d="M30.6094 31.2031C30.8594 31.4531 31.25 31.5781 31.7812 31.5781C32.3125 31.5781 32.7656 31.4688 33.1406 31.25C32.3281 26.5 31.7812 23.6875 31.5 22.8125C31.1562 21.9062 30.6406 21.4531 29.9531 21.4531C29.6406 21.4531 29.2656 21.5469 28.8281 21.7344L30.6094 31.2031ZM21.3281 45.2656C21.0156 45.7031 20.8594 46.1094 20.8594 46.4844C20.8594 47.3906 21.7031 48.1562 23.3906 48.7812C25.1094 49.375 27.1875 49.75 29.625 49.9062C30.0312 54.4062 30.4688 56.9688 30.9375 57.5938C30.3438 58.75 28.7031 59.9219 26.0156 61.1094C23.3281 62.2656 20.2969 62.8438 16.9219 62.8438C12.4531 62.8438 8.625 61.8906 5.4375 59.9844C2.25 58.0469 0.65625 55.5625 0.65625 52.5312C0.65625 51.7188 0.734375 51 0.890625 50.375L10.875 5.75C13.375 4.15625 16.3594 2.90625 19.8281 2C23.2969 1.09375 26.9062 0.640625 30.6562 0.640625C36.0312 0.640625 40.625 1.54688 44.4375 3.35938C48.7812 5.42188 51.4219 8.40625 52.3594 12.3125L63.0469 56.5156C59.7969 60.7344 54.5 62.8438 47.1562 62.8438C43.5938 62.8438 40.5781 62.2031 38.1094 60.9219C35.6406 59.6406 34.2031 57.8125 33.7969 55.4375L32.7656 49.7188C34.6406 49.6875 36.4531 49.3281 38.2031 48.6406C39.9531 47.9531 40.8281 47.2344 40.8281 46.4844C40.8281 45.9844 40.625 45.5781 40.2188 45.2656C39.0312 46.1094 37.5781 46.75 35.8594 47.1875C34.1406 47.625 32.5469 47.8438 31.0781 47.8438C26.8594 47.8438 23.6094 46.9844 21.3281 45.2656ZM89.9531 43.6719C90.0781 43.7656 90.4375 43.8125 91.0312 43.8125C91.625 43.8125 92.0781 43.6094 92.3906 43.2031C92.7031 42.7969 92.8594 42.0781 92.8594 41.0469V40.1562C92.8594 39 92.7188 38.1719 92.4375 37.6719C92.1875 37.1719 91.75 36.9219 91.125 36.9219C90.5312 36.9219 90.125 36.9844 89.9062 37.1094C89.9375 37.2656 89.9531 37.5312 89.9531 37.9062V43.6719ZM89.9531 26C90.0781 26.0938 90.4375 26.1406 91.0312 26.1406C91.625 26.1406 92.0781 25.9062 92.3906 25.4375C92.7031 24.9688 92.8594 24.2031 92.8594 23.1406V22.8594C92.8594 21.7344 92.7188 20.9375 92.4375 20.4688C92.1875 19.9688 91.75 19.7188 91.125 19.7188C90.5312 19.7188 90.125 19.7812 89.9062 19.9062C89.9375 20.0625 89.9531 20.3281 89.9531 20.7031V26ZM64.5 7.95312C64.5 7.23438 65.0938 6.42188 66.2812 5.51562C68.7812 3.60938 73.1875 2.125 79.5 1.0625C82.7812 0.53125 86.3906 0.265625 90.3281 0.265625C99.7031 0.265625 106.797 2.07812 111.609 5.70312C115.828 8.89062 117.938 13.0781 117.938 18.2656C117.938 20.1406 117.609 21.9844 116.953 23.7969C116.297 25.5781 115.359 26.9219 114.141 27.8281C112.484 26.9844 110.891 26.5625 109.359 26.5625C108.641 26.5625 108.094 26.7031 107.719 26.9844C107.344 27.2656 107.156 27.7812 107.156 28.5312C111.75 28.7188 115.328 30.375 117.891 33.5C120.172 36.3438 121.312 39.875 121.312 44.0938C121.312 50.625 118.578 55.375 113.109 58.3438C107.984 61.125 100.266 62.5156 89.9531 62.5156C82.7344 62.5156 77.4375 62.2969 74.0625 61.8594C70.6875 61.3906 68.25 60.3125 66.75 58.625C65.25 56.9375 64.5 54.375 64.5 50.9375V7.95312ZM154.922 29.6562C154.922 26.5312 154.781 24.3906 154.5 23.2344C154.219 22.0469 153.703 21.4531 152.953 21.4531C152.484 21.4531 152.062 21.6094 151.688 21.9219C151.75 22.4844 151.844 23.2344 151.969 24.1719C152.094 25.1094 152.156 27.1094 152.156 30.1719V33.2188C152.156 35.3438 152.109 36.8906 152.016 37.8594C151.922 38.8281 151.844 39.6562 151.781 40.3438C151.75 40.7188 151.719 41.0938 151.688 41.4688C152.062 41.7812 152.484 41.9375 152.953 41.9375C153.703 41.9375 154.219 41.3594 154.5 40.2031C154.781 39.0156 154.922 36.8594 154.922 33.7344V29.6562ZM153.047 63.5C147.484 63.5 142.375 62.3594 137.719 60.0781C133.094 57.7656 129.359 54.25 126.516 49.5312C123.672 44.7812 122.25 38.8594 122.25 31.7656C122.25 21.4844 125.344 13.4531 131.531 7.67188C137.031 2.57812 144.109 0.03125 152.766 0.03125C162.172 0.03125 169.609 2.95312 175.078 8.79688C180.578 14.6094 183.328 22.2656 183.328 31.7656C183.328 42.3281 180.391 50.3906 174.516 55.9531C169.172 60.9844 162.016 63.5 153.047 63.5ZM226.594 0.6875C230.344 0.6875 233.594 1.70312 236.344 3.73438C239.094 5.76562 240.469 8.65625 240.469 12.4062V38.4688C240.469 46.4062 238.047 52.5312 233.203 56.8438C228.359 61.125 221.656 63.2656 213.094 63.2656C204.562 63.2656 197.922 61.1562 193.172 56.9375C188.328 52.7188 185.906 46.5625 185.906 38.4688V5.04688C189.594 2.10938 193.859 0.640625 198.703 0.640625C202.766 0.640625 205.984 1.71875 208.359 3.875C210.734 6 211.922 9.23438 211.922 13.5781V40.9062C212.266 41.1562 212.656 41.2812 213.094 41.2812C213.562 41.2812 213.891 41.1719 214.078 40.9531C214.297 40.7031 214.406 40.25 214.406 39.5938V13.5312C214.406 11.5625 214.312 10 214.125 8.84375C213.938 7.6875 213.562 6.53125 213 5.375C216.75 2.25 221.281 0.6875 226.594 0.6875ZM283.969 25.4844V58.4375C282.531 59.6875 280.609 60.7344 278.203 61.5781C275.797 62.4219 272.875 62.8438 269.438 62.8438C266 62.8438 263.078 62.0781 260.672 60.5469C257.953 58.8906 256.594 56.5469 256.594 53.5156V23.3281H245.672C243.422 20.1094 242.297 16.5938 242.297 12.7812C242.297 10.1875 242.703 7.9375 243.516 6.03125C244.359 4.09375 245.391 2.59375 246.609 1.53125H295.078C295.984 2.9375 296.734 4.64062 297.328 6.64062C297.922 8.64062 298.219 10.625 298.219 12.5938C298.219 16.2812 297.406 19 295.781 20.75C294.156 22.4688 291.969 23.3281 289.219 23.3281H275.484C275.391 23.5469 275.344 23.7812 275.344 24.0312C275.344 24.5938 275.672 24.9688 276.328 25.1562C277.016 25.375 278.484 25.4844 280.734 25.4844H283.969ZM374.156 62.8438C369.875 62.8438 366.516 62.1406 364.078 60.7344C361.453 59.2656 360.031 57.1875 359.812 54.5L359.391 50.0938C362.266 49.4062 364.688 47.625 366.656 44.75C367.188 43.9375 367.453 43.2344 367.453 42.6406C367.453 41.8281 367.047 41.4219 366.234 41.4219H366.094C366.062 41.4531 366 41.4688 365.906 41.4688C363.719 46.0625 360.172 48.3594 355.266 48.3594C352.766 48.3594 350.625 47.8125 348.844 46.7188C347.094 45.625 345.484 43.7344 344.016 41.0469H343.734C342.891 41.0469 342.469 41.4062 342.469 42.125C342.469 42.625 342.656 43.1875 343.031 43.8125C344.281 45.9062 345.844 47.5469 347.719 48.7344C349.188 49.7344 350.734 50.3281 352.359 50.5156L351.984 59.375C350.109 60.5938 348.125 61.4688 346.031 62C343.969 62.5625 341.016 62.8438 337.172 62.8438C333.359 62.8438 329.953 62.0938 326.953 60.5938C323.266 58.75 321.422 56.1875 321.422 52.9062C321.422 48.8125 322.234 38.7031 323.859 22.5781C324.734 14.1719 325.438 8.29688 325.969 4.95312C329.188 2.07812 333.938 0.640625 340.219 0.640625C344.781 0.640625 348.562 1.48438 351.562 3.17188L354.141 11.7969L352.5 18.6875C352.375 19.1562 352.312 19.6094 352.312 20.0469C352.312 21.1406 352.938 21.7031 354.188 21.7344L358.641 3.21875C359.922 2.53125 361.594 1.9375 363.656 1.4375C365.719 0.90625 367.969 0.640625 370.406 0.640625C374.969 0.640625 378.344 1.42188 380.531 2.98438C382.75 4.51562 384.062 7.10938 384.469 10.7656C384.562 11.4531 384.703 12.5938 384.891 14.1875C387.734 38.625 389.156 53.0156 389.156 57.3594C385.688 61.0156 380.688 62.8438 374.156 62.8438ZM412.594 1.53125H439.641C440.547 3.03125 441.219 4.67188 441.656 6.45312C442.094 8.20312 442.312 9.78125 442.312 11.1875C442.312 14.3438 441.688 16.7188 440.438 18.3125C439.219 19.9062 437.5 20.7031 435.281 20.7031H416.391C415.234 20.7031 414.656 21.1562 414.656 22.0625V22.4375C414.656 22.625 414.688 22.75 414.75 22.8125H437.156C437.719 23.7812 438.203 25 438.609 26.4688C438.984 28.0625 439.172 29.4844 439.172 30.7344C439.172 34.4531 438.484 37.3594 437.109 39.4531H426.938C422.188 39.4531 418.969 39.6406 417.281 40.0156C415.594 40.3594 414.547 40.6562 414.141 40.9062C413.734 41.1875 413.531 41.5469 413.531 41.9844C413.531 42.4219 413.75 42.7656 414.188 43.0156C415.812 42.4844 417.516 42.1094 419.297 41.8906C421.641 41.6719 424.188 41.5625 426.938 41.5625H440.109C442.016 44.25 442.969 47.4844 442.969 51.2656C442.969 53.3906 442.703 55.4219 442.172 57.3594C441.641 59.2969 440.844 60.8594 439.781 62.0469H404.672C400.797 62.0469 397.688 61.1094 395.344 59.2344C392.781 57.2344 391.5 54.2969 391.5 50.4219V5.84375C391.5 4.34375 393.219 3.25 396.656 2.5625C400.094 1.875 405.406 1.53125 412.594 1.53125Z" fill="white"/>
</svg>
