<svg width="42" height="34" viewBox="0 0 42 34" fill="none" xmlns="http://www.w3.org/2000/svg">
<path d="M40.9401 11.289C41.1443 16.191 40.0495 20.3182 37.6557 23.6708C35.2918 26.9908 32.3828 29.6141 28.9288 31.5407C28.5632 31.7749 28.1794 31.9473 27.7774 32.0579C27.4066 32.1671 27.0651 32.2283 26.7529 32.2413C25.7538 32.2829 24.8971 31.9902 24.1829 31.3631C23.4999 30.7347 23.1415 30.0146 23.1077 29.2028C23.0908 28.7969 23.1825 28.3709 23.3829 27.9247C23.6144 27.4771 23.9729 27.0712 24.4581 26.707C26.1884 25.4464 27.9551 23.934 29.7583 22.17C31.5926 20.4046 32.4546 18.195 32.344 15.541C29.815 15.6463 27.6834 15.1565 25.9492 14.0715C24.2463 12.9852 23.3454 11.2555 23.2465 8.88258C23.1464 6.47842 23.8828 4.63368 25.4557 3.34836C27.0285 2.06304 28.8453 1.37746 30.906 1.29163C33.4663 1.18499 35.7352 1.96625 37.7126 3.6354C39.7212 5.30326 40.7971 7.85445 40.9401 11.289ZM9.26854 2.19287C11.8288 2.08623 14.0977 2.86748 16.0751 4.53664C18.0837 6.20449 19.1596 8.75568 19.3027 12.1902C19.5068 17.0922 18.412 21.2195 16.0182 24.572C13.6543 27.892 10.7453 30.5153 7.29129 32.442C6.92571 32.6761 6.54193 32.8485 6.13993 32.9591C5.76916 33.0684 5.42766 33.1295 5.11543 33.1425C4.1163 33.1841 3.25962 32.8914 2.54541 32.2643C1.86241 31.636 1.50401 30.9159 1.4702 30.1041C1.45329 29.6982 1.54502 29.2721 1.74537 28.8259C1.97695 28.3784 2.33537 27.9725 2.82063 27.6082C4.55092 26.3476 6.31764 24.8353 8.12079 23.0712C9.95516 21.3058 10.8171 19.0962 10.7065 16.4422C8.17748 16.5476 6.04587 16.0577 4.31171 14.9727C2.60878 13.8864 1.70789 12.1568 1.60906 9.78382C1.50892 7.37965 2.24529 5.53491 3.81816 4.24959C5.39104 2.96427 7.20783 2.2787 9.26854 2.19287Z" fill="#040404"/>
</svg>
