<svg width="42" height="34" viewBox="0 0 42 34" fill="none" xmlns="http://www.w3.org/2000/svg">
<path d="M41.0846 11.0994C41.292 16.0012 40.1999 20.1292 37.8082 23.4833C35.4465 26.8049 32.5393 29.4301 29.0865 31.359C28.7211 31.5934 28.3374 31.766 27.9355 31.8769C27.5648 31.9864 27.2233 32.0478 26.9111 32.061C25.912 32.1032 25.0551 31.8111 24.3405 31.1845C23.6571 30.5565 23.2982 29.8367 23.2639 29.0249C23.2467 28.619 23.3381 28.1929 23.5382 27.7466C23.7695 27.2989 24.1276 26.8928 24.6127 26.5282C26.3421 25.2664 28.1079 23.753 29.9098 21.9877C31.7431 20.2211 32.6035 18.0109 32.4912 15.357C29.9623 15.464 27.8303 14.9756 26.0955 13.8917C24.3918 12.8065 23.4898 11.0775 23.3894 8.70457C23.2877 6.30048 24.0229 4.45525 25.5949 3.1689C27.1669 1.88255 28.9833 1.19579 31.0439 1.10861C33.6041 1.00029 35.8735 1.78006 37.852 3.44792C39.8618 5.11446 40.9393 7.66494 41.0846 11.0994ZM9.40703 2.02401C11.9672 1.91569 14.2366 2.69547 16.2151 4.36333C18.2249 6.02986 19.3024 8.58035 19.4477 12.0148C19.6551 16.9166 18.563 21.0446 16.1714 24.3987C13.8096 27.7203 10.9024 30.3455 7.44959 32.2744C7.08417 32.5088 6.7005 32.6814 6.29857 32.7923C5.92787 32.9018 5.58641 32.9632 5.27419 32.9764C4.27508 33.0186 3.41822 32.7265 2.70359 32.0999C2.02019 31.4719 1.66132 30.7521 1.62697 29.9403C1.6098 29.5344 1.70124 29.1083 1.90131 28.662C2.13259 28.2143 2.49074 27.8082 2.97576 27.4436C4.70523 26.1818 6.47096 24.6684 8.27295 22.9031C10.1062 21.1365 10.9666 18.9263 10.8544 16.2724C8.32537 16.3794 6.19344 15.891 4.45857 14.8071C2.75493 13.7219 1.85291 11.9929 1.75252 9.61998C1.65081 7.21588 2.38597 5.37066 3.958 4.08431C5.53003 2.79796 7.34638 2.11119 9.40703 2.02401Z" fill="white"/>
</svg>
