<svg width="406" height="64" viewBox="0 0 406 64" fill="none" xmlns="http://www.w3.org/2000/svg">
<path d="M30.875 43.3438C31.1875 43.3438 31.4688 43.2656 31.7188 43.1094V38.8438C33.8438 37.4062 36.8125 36.2344 40.625 35.3281C44.4688 34.4219 48.2031 33.9688 51.8281 33.9688C53.4844 35.6562 54.8594 38.1875 55.9531 41.5625C57.0781 44.9062 57.6719 47.9375 57.7344 50.6562C57.1094 51.9062 56.0469 53.25 54.5469 54.6875C53.0781 56.125 51.2969 57.4531 49.2031 58.6719C44.0156 61.7344 38.0625 63.2656 31.3438 63.2656C21.7188 63.2656 14.1406 60.4688 8.60938 54.875C2.89062 49.2188 0.03125 41.3906 0.03125 31.3906C0.03125 21.3594 3.15625 13.4844 9.40625 7.76562C12.1562 5.20312 15.3594 3.28125 19.0156 2C22.6719 0.6875 26.5156 0.03125 30.5469 0.03125C38.4219 0.03125 44.875 1.9375 49.9062 5.75C54.9375 9.5625 57.4531 14.2656 57.4531 19.8594C57.4531 24.0781 56.1562 27.2031 53.5625 29.2344C50.9688 31.2344 47.4531 32.2344 43.0156 32.2344C40.5781 32.2344 38.125 31.6406 35.6562 30.4531C33.1875 29.2344 31.7188 28.0938 31.25 27.0312C31.25 24.4688 31.2969 22.4531 31.3906 20.9844C31.3281 20.9531 31.2188 20.9375 31.0625 20.9375H30.7344C30.2656 20.9375 29.8906 21.0781 29.6094 21.3594C29.3594 21.6094 29.125 22.1562 28.9062 23C28.7188 23.8438 28.625 26.1406 28.625 29.8906C28.625 38.8594 29.375 43.3438 30.875 43.3438ZM91.2031 29.6562C91.2031 26.5312 91.0625 24.3906 90.7812 23.2344C90.5 22.0469 89.9844 21.4531 89.2344 21.4531C88.7656 21.4531 88.3438 21.6094 87.9688 21.9219C88.0312 22.4844 88.125 23.2344 88.25 24.1719C88.375 25.1094 88.4375 27.1094 88.4375 30.1719V33.2188C88.4375 35.3438 88.3906 36.8906 88.2969 37.8594C88.2031 38.8281 88.125 39.6562 88.0625 40.3438C88.0312 40.7188 88 41.0938 87.9688 41.4688C88.3438 41.7812 88.7656 41.9375 89.2344 41.9375C89.9844 41.9375 90.5 41.3594 90.7812 40.2031C91.0625 39.0156 91.2031 36.8594 91.2031 33.7344V29.6562ZM89.3281 63.5C83.7656 63.5 78.6562 62.3594 74 60.0781C69.375 57.7656 65.6406 54.25 62.7969 49.5312C59.9531 44.7812 58.5312 38.8594 58.5312 31.7656C58.5312 21.4844 61.625 13.4531 67.8125 7.67188C73.3125 2.57812 80.3906 0.03125 89.0469 0.03125C98.4531 0.03125 105.891 2.95312 111.359 8.79688C116.859 14.6094 119.609 22.2656 119.609 31.7656C119.609 42.3281 116.672 50.3906 110.797 55.9531C105.453 60.9844 98.2969 63.5 89.3281 63.5ZM122.188 53.3281V6.35938C122.188 4.73438 123.484 3.39062 126.078 2.32812C128.703 1.23438 131.781 0.6875 135.312 0.6875C137.312 0.6875 139.188 0.9375 140.938 1.4375C142.719 1.90625 144.078 2.51562 145.016 3.26562C146.297 4.89062 147.469 6.54688 148.531 8.23438C149.594 9.92188 151.984 13.8594 155.703 20.0469C156.047 20.0469 156.359 19.9375 156.641 19.7188C156.922 19.5 157.062 19.1719 157.062 18.7344C157.062 18.2656 156.672 17.375 155.891 16.0625L150.828 7.34375V4.76562C152.422 3.45312 154.359 2.4375 156.641 1.71875C158.922 1 161.281 0.640625 163.719 0.640625C167.688 0.640625 170.891 1.35938 173.328 2.79688C176.172 4.51562 177.594 7.20312 177.594 10.8594V55.25C177.594 57.9375 176.312 59.8906 173.75 61.1094C171.562 62.2031 168.641 62.75 164.984 62.75C162.953 62.75 160.969 62.5312 159.031 62.0938C157.125 61.6562 155.625 61.0938 154.531 60.4062C152.312 57.5625 150.109 54.375 147.922 50.8438L143.141 42.875C142.234 43 141.781 43.4844 141.781 44.3281C141.781 44.8594 142.234 45.875 143.141 47.375L149 56.8438V59.3281C145.375 61.6719 141.281 62.8438 136.719 62.8438C132.188 62.8438 128.625 62.0156 126.031 60.3594C123.469 58.7031 122.188 56.3594 122.188 53.3281ZM221.094 25.4844V58.4375C219.656 59.6875 217.734 60.7344 215.328 61.5781C212.922 62.4219 210 62.8438 206.562 62.8438C203.125 62.8438 200.203 62.0781 197.797 60.5469C195.078 58.8906 193.719 56.5469 193.719 53.5156V23.3281H182.797C180.547 20.1094 179.422 16.5938 179.422 12.7812C179.422 10.1875 179.828 7.9375 180.641 6.03125C181.484 4.09375 182.516 2.59375 183.734 1.53125H232.203C233.109 2.9375 233.859 4.64062 234.453 6.64062C235.047 8.64062 235.344 10.625 235.344 12.5938C235.344 16.2812 234.531 19 232.906 20.75C231.281 22.4688 229.094 23.3281 226.344 23.3281H212.609C212.516 23.5469 212.469 23.7812 212.469 24.0312C212.469 24.5938 212.797 24.9688 213.453 25.1562C214.141 25.375 215.609 25.4844 217.859 25.4844H221.094ZM260.703 31.2031C260.953 31.4531 261.344 31.5781 261.875 31.5781C262.406 31.5781 262.859 31.4688 263.234 31.25C262.422 26.5 261.875 23.6875 261.594 22.8125C261.25 21.9062 260.734 21.4531 260.047 21.4531C259.734 21.4531 259.359 21.5469 258.922 21.7344L260.703 31.2031ZM251.422 45.2656C251.109 45.7031 250.953 46.1094 250.953 46.4844C250.953 47.3906 251.797 48.1562 253.484 48.7812C255.203 49.375 257.281 49.75 259.719 49.9062C260.125 54.4062 260.562 56.9688 261.031 57.5938C260.438 58.75 258.797 59.9219 256.109 61.1094C253.422 62.2656 250.391 62.8438 247.016 62.8438C242.547 62.8438 238.719 61.8906 235.531 59.9844C232.344 58.0469 230.75 55.5625 230.75 52.5312C230.75 51.7188 230.828 51 230.984 50.375L240.969 5.75C243.469 4.15625 246.453 2.90625 249.922 2C253.391 1.09375 257 0.640625 260.75 0.640625C266.125 0.640625 270.719 1.54688 274.531 3.35938C278.875 5.42188 281.516 8.40625 282.453 12.3125L293.141 56.5156C289.891 60.7344 284.594 62.8438 277.25 62.8438C273.688 62.8438 270.672 62.2031 268.203 60.9219C265.734 59.6406 264.297 57.8125 263.891 55.4375L262.859 49.7188C264.734 49.6875 266.547 49.3281 268.297 48.6406C270.047 47.9531 270.922 47.2344 270.922 46.4844C270.922 45.9844 270.719 45.5781 270.312 45.2656C269.125 46.1094 267.672 46.75 265.953 47.1875C264.234 47.625 262.641 47.8438 261.172 47.8438C256.953 47.8438 253.703 46.9844 251.422 45.2656ZM322.438 43.3438C322.75 43.3438 323.031 43.2656 323.281 43.1094V38.8438C325.406 37.4062 328.375 36.2344 332.188 35.3281C336.031 34.4219 339.766 33.9688 343.391 33.9688C345.047 35.6562 346.422 38.1875 347.516 41.5625C348.641 44.9062 349.234 47.9375 349.297 50.6562C348.672 51.9062 347.609 53.25 346.109 54.6875C344.641 56.125 342.859 57.4531 340.766 58.6719C335.578 61.7344 329.625 63.2656 322.906 63.2656C313.281 63.2656 305.703 60.4688 300.172 54.875C294.453 49.2188 291.594 41.3906 291.594 31.3906C291.594 21.3594 294.719 13.4844 300.969 7.76562C303.719 5.20312 306.922 3.28125 310.578 2C314.234 0.6875 318.078 0.03125 322.109 0.03125C329.984 0.03125 336.438 1.9375 341.469 5.75C346.5 9.5625 349.016 14.2656 349.016 19.8594C349.016 24.0781 347.719 27.2031 345.125 29.2344C342.531 31.2344 339.016 32.2344 334.578 32.2344C332.141 32.2344 329.688 31.6406 327.219 30.4531C324.75 29.2344 323.281 28.0938 322.812 27.0312C322.812 24.4688 322.859 22.4531 322.953 20.9844C322.891 20.9531 322.781 20.9375 322.625 20.9375H322.297C321.828 20.9375 321.453 21.0781 321.172 21.3594C320.922 21.6094 320.688 22.1562 320.469 23C320.281 23.8438 320.188 26.1406 320.188 29.8906C320.188 38.8594 320.938 43.3438 322.438 43.3438ZM391.531 25.4844V58.4375C390.094 59.6875 388.172 60.7344 385.766 61.5781C383.359 62.4219 380.438 62.8438 377 62.8438C373.562 62.8438 370.641 62.0781 368.234 60.5469C365.516 58.8906 364.156 56.5469 364.156 53.5156V23.3281H353.234C350.984 20.1094 349.859 16.5938 349.859 12.7812C349.859 10.1875 350.266 7.9375 351.078 6.03125C351.922 4.09375 352.953 2.59375 354.172 1.53125H402.641C403.547 2.9375 404.297 4.64062 404.891 6.64062C405.484 8.64062 405.781 10.625 405.781 12.5938C405.781 16.2812 404.969 19 403.344 20.75C401.719 22.4688 399.531 23.3281 396.781 23.3281H383.047C382.953 23.5469 382.906 23.7812 382.906 24.0312C382.906 24.5938 383.234 24.9688 383.891 25.1562C384.578 25.375 386.047 25.4844 388.297 25.4844H391.531Z" fill="white"/>
</svg>
