<svg width="245" height="64" viewBox="0 0 245 64" fill="none" xmlns="http://www.w3.org/2000/svg">
<path d="M57.7344 12.3125V58.9062C54.2344 61.5312 49.75 62.8438 44.2812 62.8438C40.0625 62.8438 36.7188 61.9844 34.25 60.2656C31.6562 58.5156 30.3594 55.9844 30.3594 52.6719V43.3906H33.6875C34.9688 43.3906 35.7656 43.2344 36.0781 42.9219C36.4219 42.5781 36.5938 42.0312 36.5938 41.2812H21.875C21.875 42.0312 22.0156 42.5781 22.2969 42.9219C22.5781 43.2344 23.25 43.3906 24.3125 43.3906H27.875V58.9062C25.4688 60.4688 23.1875 61.5156 21.0312 62.0469C18.875 62.5781 16.6719 62.8438 14.4219 62.8438C10.2031 62.8438 6.85938 61.9844 4.39062 60.2656C1.79688 58.5156 0.5 55.9844 0.5 52.6719V6.03125C2.125 4.3125 4.125 3 6.5 2.09375C8.90625 1.15625 11.4062 0.6875 14 0.6875C17.7812 0.6875 20.9844 1.625 23.6094 3.5C26.4531 5.625 27.875 8.5625 27.875 12.3125V20.6562H33.8281C33.8281 19.8438 33.6719 19.2969 33.3594 19.0156C33.0781 18.7031 32.6094 18.5469 31.9531 18.5469H30.3594V6.03125C31.9844 4.3125 33.9844 3 36.3594 2.09375C38.7656 1.15625 41.2656 0.6875 43.8594 0.6875C47.6406 0.6875 50.8438 1.625 53.4688 3.5C56.3125 5.625 57.7344 8.5625 57.7344 12.3125ZM92.9844 29.6562C92.9844 26.5312 92.8438 24.3906 92.5625 23.2344C92.2812 22.0469 91.7656 21.4531 91.0156 21.4531C90.5469 21.4531 90.125 21.6094 89.75 21.9219C89.8125 22.4844 89.9062 23.2344 90.0312 24.1719C90.1562 25.1094 90.2188 27.1094 90.2188 30.1719V33.2188C90.2188 35.3438 90.1719 36.8906 90.0781 37.8594C89.9844 38.8281 89.9062 39.6562 89.8438 40.3438C89.8125 40.7188 89.7812 41.0938 89.75 41.4688C90.125 41.7812 90.5469 41.9375 91.0156 41.9375C91.7656 41.9375 92.2812 41.3594 92.5625 40.2031C92.8438 39.0156 92.9844 36.8594 92.9844 33.7344V29.6562ZM91.1094 63.5C85.5469 63.5 80.4375 62.3594 75.7812 60.0781C71.1562 57.7656 67.4219 54.25 64.5781 49.5312C61.7344 44.7812 60.3125 38.8594 60.3125 31.7656C60.3125 21.4844 63.4062 13.4531 69.5938 7.67188C75.0938 2.57812 82.1719 0.03125 90.8281 0.03125C100.234 0.03125 107.672 2.95312 113.141 8.79688C118.641 14.6094 121.391 22.2656 121.391 31.7656C121.391 42.3281 118.453 50.3906 112.578 55.9531C107.234 60.9844 100.078 63.5 91.1094 63.5ZM175.25 62.8438C170.969 62.8438 167.609 62.1406 165.172 60.7344C162.547 59.2656 161.125 57.1875 160.906 54.5L160.484 50.0938C163.359 49.4062 165.781 47.625 167.75 44.75C168.281 43.9375 168.547 43.2344 168.547 42.6406C168.547 41.8281 168.141 41.4219 167.328 41.4219H167.188C167.156 41.4531 167.094 41.4688 167 41.4688C164.812 46.0625 161.266 48.3594 156.359 48.3594C153.859 48.3594 151.719 47.8125 149.938 46.7188C148.188 45.625 146.578 43.7344 145.109 41.0469H144.828C143.984 41.0469 143.562 41.4062 143.562 42.125C143.562 42.625 143.75 43.1875 144.125 43.8125C145.375 45.9062 146.938 47.5469 148.812 48.7344C150.281 49.7344 151.828 50.3281 153.453 50.5156L153.078 59.375C151.203 60.5938 149.219 61.4688 147.125 62C145.062 62.5625 142.109 62.8438 138.266 62.8438C134.453 62.8438 131.047 62.0938 128.047 60.5938C124.359 58.75 122.516 56.1875 122.516 52.9062C122.516 48.8125 123.328 38.7031 124.953 22.5781C125.828 14.1719 126.531 8.29688 127.062 4.95312C130.281 2.07812 135.031 0.640625 141.312 0.640625C145.875 0.640625 149.656 1.48438 152.656 3.17188L155.234 11.7969L153.594 18.6875C153.469 19.1562 153.406 19.6094 153.406 20.0469C153.406 21.1406 154.031 21.7031 155.281 21.7344L159.734 3.21875C161.016 2.53125 162.688 1.9375 164.75 1.4375C166.812 0.90625 169.062 0.640625 171.5 0.640625C176.062 0.640625 179.438 1.42188 181.625 2.98438C183.844 4.51562 185.156 7.10938 185.562 10.7656C185.656 11.4531 185.797 12.5938 185.984 14.1875C188.828 38.625 190.25 53.0156 190.25 57.3594C186.781 61.0156 181.781 62.8438 175.25 62.8438ZM213.688 1.53125H240.734C241.641 3.03125 242.312 4.67188 242.75 6.45312C243.188 8.20312 243.406 9.78125 243.406 11.1875C243.406 14.3438 242.781 16.7188 241.531 18.3125C240.312 19.9062 238.594 20.7031 236.375 20.7031H217.484C216.328 20.7031 215.75 21.1562 215.75 22.0625V22.4375C215.75 22.625 215.781 22.75 215.844 22.8125H238.25C238.812 23.7812 239.297 25 239.703 26.4688C240.078 28.0625 240.266 29.4844 240.266 30.7344C240.266 34.4531 239.578 37.3594 238.203 39.4531H228.031C223.281 39.4531 220.062 39.6406 218.375 40.0156C216.688 40.3594 215.641 40.6562 215.234 40.9062C214.828 41.1875 214.625 41.5469 214.625 41.9844C214.625 42.4219 214.844 42.7656 215.281 43.0156C216.906 42.4844 218.609 42.1094 220.391 41.8906C222.734 41.6719 225.281 41.5625 228.031 41.5625H241.203C243.109 44.25 244.062 47.4844 244.062 51.2656C244.062 53.3906 243.797 55.4219 243.266 57.3594C242.734 59.2969 241.938 60.8594 240.875 62.0469H205.766C201.891 62.0469 198.781 61.1094 196.438 59.2344C193.875 57.2344 192.594 54.2969 192.594 50.4219V5.84375C192.594 4.34375 194.312 3.25 197.75 2.5625C201.188 1.875 206.5 1.53125 213.688 1.53125Z" fill="white"/>
</svg>
