<svg width="1111" height="419" viewBox="0 0 1111 419" fill="none" xmlns="http://www.w3.org/2000/svg">
<g clip-path="url(#clip0_34_2)">
<path d="M33.5732 248.286C33.0701 251.314 32.83 254.385 32.8557 257.459C32.7675 264.609 34.2237 271.687 37.115 278.161C39.9279 284.034 43.3445 287.729 47.3646 288.71C47.8657 317.294 47.2393 346.261 49.8359 374.821C48.902 386.446 46.2485 397.066 41.864 405.342C37.4794 413.618 32.4913 416.226 26.9109 417.864C19.5084 420.029 12.9601 420.615 7.88081 407.268C-1.22995 383.288 0.136661 353.209 0.0113884 327.878C0.0113884 317.844 0.136661 308.97 0.387207 301.567C3.41654 208.507 11.3885 115.651 16.6841 22.7237C20.7839 13.1559 25.681 7.9055 31.3866 4.85575C37.0922 1.806 43.037 1.19604 49.2209 1.19604C58.0697 1.19604 65.9733 2.29635 71.8839 10.1061C83.204 25.0798 83.4432 48.5928 84.7415 67.1903C89.5588 160.704 98.9087 253.763 102.963 347.337C99.9337 366.999 97.9065 393.287 76.9973 400.929C71.1323 403.07 65.6089 403.859 61.8962 397.736C54.2432 384.963 55.2112 366.102 54.5051 350.77C53.8598 329.098 53.2144 307.431 52.5691 285.768C55.6554 284.871 58.6278 280.302 61.4863 272.947C64.1244 266.601 65.5595 259.777 65.7114 252.854C65.8183 249.949 65.4564 247.046 64.6409 244.267C62.9159 249.795 60.5319 255.071 57.5459 259.971C54.7443 264.228 52.125 266.788 49.7106 267.146C42.7295 268.211 37.3655 259.253 33.5732 248.286ZM50.5533 171.48C51.4189 171.408 52.1591 170.559 52.831 168.968C52.2502 156.147 52.6488 142.37 50.2117 130.051C49.7448 127.659 48.8337 125.638 47.7062 125.71C46.9803 125.878 46.33 126.3 45.8613 126.906C47.581 140.875 48.0251 154.963 48.6856 169.028C49.0387 170.726 49.6764 171.564 50.5533 171.48Z" fill="white"/>
<path d="M108.452 35.4608C108.536 30.3166 109.561 25.2372 111.47 20.4991C115.672 9.85487 123.064 4.56864 133.552 2.04512C138.996 0.741498 145.169 0.538181 151.58 0.394663C166.226 0.0717486 181.19 4.80783 186.941 20.6067C195.79 44.7895 197.362 74.6412 197.305 100.737C197.305 110.843 196.69 118.247 195.562 121.237C194.435 124.227 192.897 130.41 190.893 135.062C188.08 131.139 185.404 129.824 182.841 130.039C182.25 130.075 181.681 130.283 181.196 130.64C180.711 130.997 180.331 131.489 180.097 132.06C179.482 133.352 179.186 135.648 179.22 139.75C192.157 143.075 194.947 157.69 197.601 169.04C201.344 184.824 203.441 200.989 203.853 217.25C204.411 253.99 203.215 299.175 189.743 332.196C182.204 350.697 170.383 361.892 151.352 369.821C139.372 374.808 130.569 377.87 124.943 378.265C119.317 378.659 115.114 375.538 112.643 362.896C107.837 338.343 108.828 311.768 108.623 286.724C108.335 202.958 108.278 119.203 108.452 35.4608ZM150.327 130.553C150.532 130.888 151.136 131.02 152.127 130.936C153.118 130.852 153.881 129.812 154.405 128.269C154.988 126.6 155.266 124.831 155.225 123.054C155.225 122.803 155.225 122.672 155.225 122.397C155.275 119.631 155.069 116.868 154.61 114.144C154.177 112.099 153.471 110.939 152.434 110.999C152.036 110.985 151.64 111.071 151.279 111.25C150.919 111.429 150.604 111.695 150.362 112.028C150.362 112.757 150.43 113.989 150.419 115.532C150.419 124.382 150.327 122.696 150.327 130.553ZM150.92 223.433C151.136 223.732 151.751 223.816 152.742 223.672C153.285 223.512 153.78 223.208 154.178 222.789C154.577 222.37 154.867 221.851 155.02 221.28C155.521 220.084 155.771 219.259 155.771 215.898V212.657C155.815 208.605 155.571 204.556 155.042 200.542C154.575 197.767 153.824 196.296 152.765 196.428C152.332 196.448 151.913 196.588 151.548 196.834C151.184 197.08 150.889 197.422 150.692 197.827C150.692 198.76 150.783 200.327 150.794 202.42C150.92 215.277 150.829 215.277 150.954 223.433H150.92Z" fill="white"/>
<path d="M255.853 45.6507C255.773 134.153 257.105 222.548 256.08 311.075C253.598 319.71 250.386 325.702 246.332 330.091C242.278 334.48 237.46 336.765 231.743 338.822C226.026 340.879 220.697 341.824 217.155 335.796C209.046 322.006 210.823 301.591 210.618 285.218C211.142 195.866 209.9 106.538 210.128 17.1744C212.554 10.8715 215.822 6.865 219.808 4.31756C223.794 1.77012 228.691 1.19604 234.374 1.19604C240.057 1.19604 245.387 2.17675 249.179 7.59455C256.24 17.7484 255.465 33.069 255.853 45.6507Z" fill="white"/>
<path d="M316.109 112.673C331.522 112.163 346.938 111.852 362.358 111.74C367.699 123.473 367.323 138.16 367.756 150.514C368.28 165.38 369.532 182.411 365.216 197.157H362.016C362.016 222.62 361.037 248.118 360.467 273.58C351.789 297.715 343.772 311.936 319.059 315.906C308.809 317.545 299.425 319.733 291.852 311.361C276.922 294.821 275.532 263.881 272.639 242.437C268.54 211.964 264.747 182.196 264.132 151.315C263.369 112.625 266.717 68.1469 278.937 32.8177C285.85 13.084 296.396 -0.669755 318.41 -6.15005e-06C326.382 0.25115 334.354 0.514265 341.562 5.13075C348.771 9.74723 354.557 17.9397 358.736 30.5932C358.736 44.9449 358.258 59.2967 357.597 73.5528C356.846 90.2965 355.912 100.271 354.773 105.545C341.054 105.713 327.342 106.028 313.638 106.49C311.964 110.461 310.221 112.255 308.934 117.852C306.532 128.616 307.203 141.054 307.477 151.985C307.853 166.492 307.386 183.691 313.034 197.109C315.528 203.03 319.047 203.352 323.136 203.089C323.761 203.136 324.379 202.922 324.856 202.495C325.333 202.068 325.632 201.461 325.687 200.805C325.687 200.147 325.687 199.549 325.687 198.329H324.821C321.405 198.521 318.319 196.93 316.029 189.79C312.078 177.412 311.725 162.928 311.622 149.928C311.554 138.459 309.846 123.306 316.109 112.673Z" fill="white"/>
<path d="M405.622 208.184C405.078 210.05 404.783 211.986 404.745 213.937C404.626 218.624 406.023 223.215 408.708 226.961C411.143 230.604 414.731 233.219 418.833 234.34C418.89 251.885 418.195 269.753 419.972 287.239C419.043 293.976 416.034 300.207 411.407 304.975C406.852 309.52 401.83 310.464 396.215 310.441C388.801 310.441 382.082 308.922 377.31 299.904C370.079 286.246 370.056 268.402 370.398 252.758C370.523 247.006 370.773 241.995 371.127 237.737C377.049 165.189 381.376 92.6287 386.182 19.949C390.327 11.8761 395.293 7.24768 400.987 4.53281C406.681 1.81793 412.797 1.1123 419.026 1.1123C427.944 1.1123 435.915 2.23653 441.929 9.18517C452.816 21.7669 453.624 42.2301 455.128 58.7107C460.002 132.861 470.354 206.008 473.349 280.398C468.794 295.503 464.387 311.314 446.473 310.656C440.778 310.452 435.551 309.603 431.531 304.425C427.511 299.246 425.313 289.487 424.971 273.198C424.675 259.819 424.379 246.432 424.083 233.037C427.192 232.798 430.244 230.298 433.194 225.945C436.143 221.591 437.692 217.345 437.749 213.482C437.896 211.521 437.587 209.551 436.849 207.742C434.939 211.379 432.442 214.641 429.47 217.381C426.577 219.857 423.912 221.22 421.498 221.244C414.539 221.328 409.266 215.504 405.622 208.184ZM421.748 145.252C422.625 145.252 423.365 144.582 423.946 143.29C421.851 115.496 421.031 113.391 420.53 111.346C420.029 109.301 419.095 107.459 417.956 107.459C417.26 107.563 416.609 107.884 416.088 108.38C417.876 119.885 418.753 131.438 419.755 143.063C420.234 144.522 420.86 145.264 421.748 145.252Z" fill="white"/>
<path d="M524.222 43.7849C524.222 126.714 525.497 209.524 524.461 292.453C521.99 299.725 518.767 304.413 514.713 307.343C510.658 310.273 505.83 310.931 500.124 310.931C494.418 310.931 489.362 309.735 485.649 303.074C478.577 290.432 479.739 273.664 479.579 259.325C480.934 178.416 478.828 97.4964 478.759 16.5405C481.139 10.6323 484.328 6.80519 488.314 4.32951C492.3 1.85383 497.14 1.19604 502.789 1.19604C508.438 1.19604 513.733 2.26047 517.514 7.53474C524.245 16.9232 524.404 32.0523 524.222 43.7849Z" fill="white"/>
<path d="M551.611 309.245C545.848 309.173 541.122 306.937 538.366 297.285C533.264 279.346 534.346 258.93 534.346 239.95C535.234 165.476 533.503 90.9665 533.481 16.4807C536.225 9.87888 539.585 6.19525 543.548 4.03052C547.377 2.02873 551.618 1.05486 555.893 1.19605C562.168 1.19605 567.897 2.45183 571.837 9.56792C579.137 22.7237 579.126 42.3498 578.898 57.6464C578.898 98.0865 579.167 138.503 579.706 178.895C576.836 179.768 574.012 182.411 571.29 186.071C568.568 189.731 567.19 192.733 567.19 194.814C567.204 195.386 567.344 195.948 567.599 196.454C567.854 196.96 568.217 197.398 568.66 197.732C571.267 193.995 574.673 190.951 578.602 188.845C582.532 186.739 586.877 185.629 591.288 185.605L609.59 185.114C614.464 202.049 614.521 218.817 614.566 236.266C614.566 251.623 613.815 267.278 612.676 282.718C611.537 298.158 610.011 306.423 608.2 310.226C589.341 309.771 570.478 309.444 551.611 309.245Z" fill="white"/>
<path d="M744.679 182.555C750.453 194.838 754.097 202.324 757.958 216.042C756.887 243.897 757.024 273.748 750.168 300.706C746.205 316.254 740.533 317.45 733.176 317.067C727.63 316.756 722.665 315.273 718.702 307.427C708.68 287.586 708.851 260.784 706.983 238.718C705.844 224.474 705.32 217.477 704.204 207.336C701.338 206.932 698.558 206.022 695.982 204.645C695.499 206.49 695.292 208.402 695.367 210.314C695.367 215.253 697.451 218.685 701.642 219.81C703.259 237.068 704.603 254.362 706.026 271.655C706.026 283.962 706.026 289.966 706.026 299.33C700.07 313.969 692.429 315.058 683.09 314.687C676.405 314.424 670.699 312.929 667.055 304.987C660.416 290.504 661.361 272.062 661.179 255.892C661.372 182.124 660.894 108.344 660.962 34.6357C660.789 27.1971 663.021 19.9164 667.294 13.9811C671.497 8.33606 677.009 5.03514 683.807 3.02589C690.606 1.01664 697.542 0.63393 704.216 0.514332C721.594 0.167497 732.926 6.20721 740.727 20.5829C753.414 43.9524 754.997 80.98 754.575 109.086C754.141 123.964 752.171 138.749 748.699 153.181C746.296 163.503 743.062 178.022 733.894 185.353C733.894 189.216 734.885 190.365 736.889 190.365C738.893 190.365 741.467 188.618 744.679 182.555ZM704.443 125.148C704.648 125.578 705.241 125.793 706.231 125.782C707.222 125.77 707.974 124.586 708.509 122.648C709.06 120.021 709.32 117.336 709.283 114.647C709.283 112.877 709.283 112.53 709.283 111.418C709.294 109.404 709.072 107.396 708.623 105.438C708.19 103.847 707.484 102.902 706.448 102.902C706.075 102.856 705.697 102.894 705.34 103.014C704.982 103.133 704.653 103.332 704.375 103.596C704.375 104.158 704.455 105.103 704.455 106.275C704.421 114.587 704.409 112.913 704.443 125.124V125.148Z" fill="white"/>
<path d="M809.935 43.9165C809.843 131.462 809.259 218.984 808.181 306.482C805.721 314.352 802.487 318.945 798.535 321.42C794.583 323.896 789.811 323.693 784.265 322.712C778.719 321.731 773.879 319.842 770.291 311.948C763.458 296.879 764.256 278.353 764.028 261.717C764.461 179.792 764.631 97.8673 764.54 15.9425C766.92 10.2137 770.121 6.49422 774.118 4.10226C778.115 1.7103 782.933 1.1123 788.593 1.1123C794.253 1.1123 799.537 2.04517 803.295 7.27161C810.071 16.7438 810.14 32.1122 809.935 43.9165Z" fill="white"/>
<path d="M864.953 48.2459C864.178 98.1063 863.017 147.979 861.958 197.851C862.435 198.238 862.987 198.512 863.575 198.652C865.272 198.939 866.24 196.751 866.467 188.75C867.682 129.501 869.03 70.2559 870.51 11.015C872.127 7.42706 875.145 4.79591 879.427 3.13349C883.004 1.79346 886.78 1.13726 890.577 1.19601C898.412 1.19601 904.493 2.39199 908.081 12.1512C913.934 28.0936 913.65 47.0858 913.684 64.0328C913.521 83.3769 912.121 102.688 909.493 121.835C903.138 171.229 899.961 223.732 896.875 274.37C895.348 294.953 896.328 324.864 884.006 340.52C879.257 346.5 871.285 345.208 862.516 342.469C856.826 340.909 851.523 338.078 846.97 334.169C842.153 329.863 838.349 323.644 835.582 313.287C831.528 266.369 828.669 218.948 825.207 172.341C821.631 124.215 817.907 75.6936 816.153 27.089C819.968 13.8016 824.41 1.07641 839.431 1.02857C861.491 0.95681 863.085 31.4902 864.953 48.2459Z" fill="white"/>
<path d="M943.271 231.363C942.7 233.777 942.398 236.254 942.371 238.742C942.312 245.219 943.684 251.622 946.38 257.447C949.147 263.427 952.541 267.9 956.63 270.423C956.789 295.096 955.867 320.248 958.087 344.849C956.949 354.214 954.124 361.593 949.523 365.851C944.922 370.108 939.798 369.116 934.16 367.047C926.712 364.332 920.323 360.84 915.381 347.433C907.91 327.161 908.229 303.648 908.331 282.264C908.331 274.609 908.639 267.84 908.969 262.243C913.695 182.112 922.294 102.077 927.452 21.8506C931.575 12.9525 936.586 7.80982 942.371 4.84379C948.157 1.87775 954.17 1.19604 960.399 1.19604C969.328 1.19604 977.3 2.32027 983.176 10.6204C994.473 26.515 994.701 50.7814 996.022 70.1802C1000.91 164.507 1008.72 258.392 1011.97 352.874C1008.74 368.566 1005.78 393.645 984.77 385.656C978.894 383.42 973.541 380.549 969.726 372.345C963.337 358.651 963.656 342.075 962.996 326.898C962.601 307.953 962.221 289.005 961.857 270.053C964.977 270.591 968.018 267.924 970.968 262.638C973.8 257.782 975.371 252.232 975.523 246.54C975.66 243.826 975.351 241.107 974.612 238.503C972.573 242.88 970.057 247.09 967.209 249.733C964.362 252.376 961.641 253.572 959.238 252.962C952.177 251.24 946.87 241.768 943.271 231.363ZM961.231 165.584C962.107 165.727 962.859 165.093 963.508 163.658C962.962 149.031 963.28 133.543 961.082 119.574C960.65 116.859 959.693 115.687 958.554 115.592C957.893 115.575 957.243 115.767 956.687 116.142C958.247 131.582 958.68 147.13 959.317 162.642C959.705 164.388 960.342 165.368 961.185 165.524L961.231 165.584Z" fill="white"/>
<path d="M1060.57 254.553C1062.31 253.787 1063.2 250.702 1063.21 247.724C1063.23 244.746 1062.8 243.729 1061.9 239.483C1061 235.238 1059.63 229.497 1057.92 223.23C1054.5 213.507 1050.27 196.332 1039.08 193.905C1035.39 193.091 1031.49 195.651 1028.07 200.662C1023.1 188.092 1021.09 174.147 1019.64 160.788C1018.24 147.907 1016.46 134.476 1016.69 121.703C1017.24 89.8661 1018.43 49.0353 1032.2 21.6951C1039.04 8.18054 1047.83 0.167461 1064.09 0.466457C1073.2 0.657814 1081.28 1.14817 1087.65 5.87229C1094.03 10.5964 1099.25 19.0281 1103.3 32.5546C1104.6 49.2984 1105.17 66.2215 1105.08 82.9413C1105 95.1523 1105.19 107.866 1103.55 120.017C1102.62 126.965 1101.09 128.042 1099.2 132.431C1097.41 129.142 1094.19 126.69 1089.53 124.956C1084.87 123.222 1080.64 121.368 1076.82 121.081C1073.01 120.794 1070.45 121.081 1069.16 121.847C1068.59 122.052 1068.1 122.435 1067.75 122.945C1067.41 123.455 1067.22 124.065 1067.21 124.693C1067.21 125.421 1067.28 126.146 1067.43 126.858C1069.73 126.177 1072.12 125.914 1074.5 126.08C1087.59 126.08 1095.15 136.976 1099.5 147.201C1111.55 175.618 1111.25 217.597 1110.95 250.941C1110.59 293.123 1108.68 340.472 1098.35 380.37C1092.9 401.336 1086.25 420.651 1061.64 412.841C1053.34 410.198 1045.93 407.399 1039.8 402.663C1030.49 395.487 1024.53 382.212 1022.03 372.512C1014.52 343.342 1016.11 302.296 1016.68 267.84C1016.91 253.56 1017.38 239.531 1023.13 226.961C1027.49 217.394 1032.24 208.041 1038.08 209.022C1043.92 210.002 1048.76 216.353 1052.47 225.383C1056.19 234.412 1058.86 235.608 1060.57 254.553Z" fill="white"/>
</g>
<defs>
<clipPath id="clip0_34_2">
<rect width="1111" height="419" fill="white"/>
</clipPath>
</defs>
</svg>
