<svg width="414" height="64" viewBox="0 0 414 64" fill="none" xmlns="http://www.w3.org/2000/svg">
<path d="M53.0625 62.8438C48.7812 62.8438 45.4219 62.1406 42.9844 60.7344C40.3594 59.2656 38.9375 57.1875 38.7188 54.5L38.2969 50.0938C41.1719 49.4062 43.5938 47.625 45.5625 44.75C46.0938 43.9375 46.3594 43.2344 46.3594 42.6406C46.3594 41.8281 45.9531 41.4219 45.1406 41.4219H45C44.9688 41.4531 44.9062 41.4688 44.8125 41.4688C42.625 46.0625 39.0781 48.3594 34.1719 48.3594C31.6719 48.3594 29.5312 47.8125 27.75 46.7188C26 45.625 24.3906 43.7344 22.9219 41.0469H22.6406C21.7969 41.0469 21.375 41.4062 21.375 42.125C21.375 42.625 21.5625 43.1875 21.9375 43.8125C23.1875 45.9062 24.75 47.5469 26.625 48.7344C28.0938 49.7344 29.6406 50.3281 31.2656 50.5156L30.8906 59.375C29.0156 60.5938 27.0312 61.4688 24.9375 62C22.875 62.5625 19.9219 62.8438 16.0781 62.8438C12.2656 62.8438 8.85938 62.0938 5.85938 60.5938C2.17188 58.75 0.328125 56.1875 0.328125 52.9062C0.328125 48.8125 1.14062 38.7031 2.76562 22.5781C3.64062 14.1719 4.34375 8.29688 4.875 4.95312C8.09375 2.07812 12.8438 0.640625 19.125 0.640625C23.6875 0.640625 27.4688 1.48438 30.4688 3.17188L33.0469 11.7969L31.4062 18.6875C31.2812 19.1562 31.2188 19.6094 31.2188 20.0469C31.2188 21.1406 31.8438 21.7031 33.0938 21.7344L37.5469 3.21875C38.8281 2.53125 40.5 1.9375 42.5625 1.4375C44.625 0.90625 46.875 0.640625 49.3125 0.640625C53.875 0.640625 57.25 1.42188 59.4375 2.98438C61.6562 4.51562 62.9688 7.10938 63.375 10.7656C63.4688 11.4531 63.6094 12.5938 63.7969 14.1875C66.6406 38.625 68.0625 53.0156 68.0625 57.3594C64.5938 61.0156 59.5938 62.8438 53.0625 62.8438ZM85.875 47.75C86.75 47.75 87.1875 47.2656 87.1875 46.2969C80.2812 41.7031 75 36.0625 71.3438 29.375C67.7188 22.6875 65.6875 15.3125 65.25 7.25C66.6562 5.15625 68.75 3.54688 71.5312 2.42188C74.3438 1.29688 77.2344 0.734375 80.2031 0.734375C84.1094 0.734375 87.4688 1.5 90.2812 3.03125C92.0312 7.75 93.4688 12.25 94.5938 16.5312C93.0625 23.2812 92.2969 26.6562 92.2969 26.6562C92.1719 27.125 92.1094 27.5625 92.1094 27.9688C92.1094 29.0312 92.6719 29.5625 93.7969 29.5625C94.1719 28.375 95.0469 24.7812 96.4219 18.7812C96.7656 17.25 97.2188 15.125 97.7812 12.4062C98.375 9.65625 99.125 6.42188 100.031 2.70312C102.906 1.32812 106.188 0.640625 109.875 0.640625C114.344 0.640625 117.906 1.73438 120.562 3.92188C123.219 6.07812 124.547 9.20312 124.547 13.2969C124.547 19.2969 122.859 25.1406 119.484 30.8281C116.828 35.3281 113.312 39.5312 108.938 43.4375V58.9062C106.344 60.5 104.016 61.5469 101.953 62.0469C99.8906 62.5781 97.7188 62.8438 95.4375 62.8438C91.125 62.8438 87.7344 62.0312 85.2656 60.4062C82.7969 58.7812 81.5625 56.3594 81.5625 53.1406V44.8906C82.125 45.4531 82.8438 46.0781 83.7188 46.7656C84.5938 47.4219 85.3125 47.75 85.875 47.75ZM174.891 62.7969C171.859 62.7969 169.328 62.5625 167.297 62.0938C164.484 61.5 162.422 60.5781 161.109 59.3281C158.172 53.1094 155.656 46.2969 153.562 38.8906C150.656 28.6406 148.625 18.0625 147.469 7.15625C148.875 5.09375 150.797 3.5 153.234 2.375C155.672 1.21875 158.391 0.640625 161.391 0.640625C165.891 0.640625 169.422 1.5 171.984 3.21875C174.578 4.9375 175.875 7.39062 175.875 10.5781C175.656 12.9531 175.453 16.4375 175.266 21.0312C175.109 25.625 175.031 29.7812 175.031 33.5C175.031 34.5312 175.125 35.3438 175.312 35.9375C175.531 36.5 175.969 36.7812 176.625 36.7812C176.875 36.7812 177.188 36.7344 177.562 36.6406C177.531 36.3594 177.516 35.8906 177.516 35.2344V33.5938C177.516 29.0625 177.672 23.8438 177.984 17.9375C178.297 12 178.672 7.57812 179.109 4.67188C181.953 2.92188 185.297 2.04688 189.141 2.04688C192.984 2.04688 196.078 2.57812 198.422 3.64062C201.234 4.95312 202.719 6.875 202.875 9.40625C202.719 12.4688 202.422 15.4844 201.984 18.4531C201.578 21.4219 201.078 24.8438 200.484 28.7188C199.891 32.5938 199.516 35.1562 199.359 36.4062C199.609 36.5312 199.938 36.5938 200.344 36.5938C200.75 36.5938 201.125 36.4375 201.469 36.125C201.812 35.8125 202.094 35.0625 202.312 33.875C203.281 28.875 204.078 23.6094 204.703 18.0781C205.328 12.5156 205.734 7.67188 205.922 3.54688C208.797 1.60938 212.766 0.640625 217.828 0.640625C221.922 0.640625 225.188 1.73438 227.625 3.92188C230.062 6.07812 231.281 8.98438 231.281 12.6406C231.281 15.0781 230.125 21.4688 227.812 31.8125C226.625 37.25 225.484 41.9062 224.391 45.7812C223.297 49.625 222.406 52.3281 221.719 53.8906C220.281 57.0469 218.125 59.3281 215.25 60.7344C212.406 62.1094 208.766 62.7969 204.328 62.7969C202.547 62.7969 200.484 62.5312 198.141 62C195.828 61.4688 194.062 60.875 192.844 60.2188C192.219 59.25 191.516 57.7812 190.734 55.8125C189.953 53.8438 189.469 52.3594 189.281 51.3594C188.062 51.3906 187.453 52.0469 187.453 53.3281C187.453 54.3281 187.938 56.1719 188.906 58.8594C185.625 61.4844 180.953 62.7969 174.891 62.7969ZM263.953 29.6562C263.953 26.5312 263.812 24.3906 263.531 23.2344C263.25 22.0469 262.734 21.4531 261.984 21.4531C261.516 21.4531 261.094 21.6094 260.719 21.9219C260.781 22.4844 260.875 23.2344 261 24.1719C261.125 25.1094 261.188 27.1094 261.188 30.1719V33.2188C261.188 35.3438 261.141 36.8906 261.047 37.8594C260.953 38.8281 260.875 39.6562 260.812 40.3438C260.781 40.7188 260.75 41.0938 260.719 41.4688C261.094 41.7812 261.516 41.9375 261.984 41.9375C262.734 41.9375 263.25 41.3594 263.531 40.2031C263.812 39.0156 263.953 36.8594 263.953 33.7344V29.6562ZM262.078 63.5C256.516 63.5 251.406 62.3594 246.75 60.0781C242.125 57.7656 238.391 54.25 235.547 49.5312C232.703 44.7812 231.281 38.8594 231.281 31.7656C231.281 21.4844 234.375 13.4531 240.562 7.67188C246.062 2.57812 253.141 0.03125 261.797 0.03125C271.203 0.03125 278.641 2.95312 284.109 8.79688C289.609 14.6094 292.359 22.2656 292.359 31.7656C292.359 42.3281 289.422 50.3906 283.547 55.9531C278.203 60.9844 271.047 63.5 262.078 63.5ZM321.141 28.6719C321.266 28.7656 321.625 28.8125 322.219 28.8125C322.812 28.8125 323.266 28.5781 323.578 28.1094C323.891 27.6406 324.047 26.875 324.047 25.8125V24.125C324.047 23 323.906 22.2031 323.625 21.7344C323.375 21.2344 322.938 20.9844 322.312 20.9844C321.719 20.9844 321.312 21.0469 321.094 21.1719C321.125 21.3281 321.141 21.5938 321.141 21.9688V28.6719ZM345.328 39.3594L353.438 47.6562C352.875 52.5312 351.328 56.2812 348.797 58.9062C346.297 61.5312 342.828 62.8438 338.391 62.8438C335.047 62.8438 332.141 62.0469 329.672 60.4531C326.516 58.4531 324.156 55.2656 322.594 50.8906L320.906 46.2969C319.594 46.2656 317.938 46.0938 315.938 45.7812C315.688 46.0312 315.562 46.375 315.562 46.8125C315.562 47.6562 316.828 48.1562 319.359 48.3125L322.031 55.0625V59.0469C318.438 61.5781 313.828 62.8438 308.203 62.8438C304.172 62.8438 300.953 62.0156 298.547 60.3594C296.141 58.7031 294.938 56.2969 294.938 53.1406V8.60938C294.938 7.23438 296.203 5.90625 298.734 4.625C301.266 3.3125 304.578 2.26562 308.672 1.48438C312.766 0.671875 316.859 0.265625 320.953 0.265625C330.328 0.265625 337.656 2.1875 342.938 6.03125C348.5 10.0625 351.281 15.7344 351.281 23.0469C351.281 27.2344 350.094 30.8281 347.719 33.8281C345.375 36.7969 342.406 38.8594 338.812 40.0156C338.812 41.0156 339.406 41.5156 340.594 41.5156C341.812 41.5156 343.391 40.7969 345.328 39.3594ZM382.594 10.4375V12.5469C381.344 15.1406 380.391 17.1719 379.734 18.6406C379.078 20.0781 378.75 21.0625 378.75 21.5938C378.75 22.5 379.266 22.9531 380.297 22.9531L389.531 2.70312C391.688 1.29688 394.625 0.59375 398.344 0.59375C402.094 0.59375 405.312 1.625 408 3.6875C410.938 6 412.406 9.15625 412.406 13.1562C412.406 16.5 411.266 19.7969 408.984 23.0469C406.703 26.2656 403.719 29.0625 400.031 31.4375C398.312 30.4688 396.766 29.9844 395.391 29.9844C394.016 29.9844 393.328 30.6562 393.328 32C394.766 32.2812 396.062 32.6875 397.219 33.2188C398.406 33.7188 399.797 34.7031 401.391 36.1719L413.859 47.6562C412.953 57.7812 407.891 62.8438 398.672 62.8438C395.266 62.8438 392.344 61.9688 389.906 60.2188C387.031 58.1875 384.781 55.0938 383.156 50.9375L378.797 40.0625H378.562C377.531 40.0625 377.016 40.5 377.016 41.375C377.016 41.9375 377.453 43.2969 378.328 45.4531C379.203 47.7969 380.516 50.9219 382.266 54.8281V58.4375C378.984 61.375 374.219 62.8438 367.969 62.8438C364.594 62.8438 361.703 62.0781 359.297 60.5469C356.578 58.8906 355.219 56.5312 355.219 53.4688V5.09375C358.438 2.15625 363.328 0.6875 369.891 0.6875C373.297 0.6875 376.188 1.40625 378.562 2.84375C381.25 4.5625 382.594 7.09375 382.594 10.4375Z" fill="white"/>
</svg>
