<svg width="378" height="54" viewBox="0 0 378 54" fill="none" xmlns="http://www.w3.org/2000/svg">
<path d="M44.2188 52.7031C40.651 52.7031 37.8516 52.1172 35.8203 50.9453C33.6328 49.7214 32.4479 47.9896 32.2656 45.75L31.9141 42.0781C34.3099 41.5052 36.3281 40.0208 37.9688 37.625C38.4115 36.9479 38.6328 36.362 38.6328 35.8672C38.6328 35.1901 38.2943 34.8516 37.6172 34.8516H37.5C37.474 34.8776 37.4219 34.8906 37.3438 34.8906C35.5208 38.7188 32.5651 40.6328 28.4766 40.6328C26.3932 40.6328 24.6094 40.1771 23.125 39.2656C21.6667 38.3542 20.3255 36.7786 19.1016 34.5391H18.8672C18.1641 34.5391 17.8125 34.8385 17.8125 35.4375C17.8125 35.8542 17.9688 36.3229 18.2812 36.8438C19.3229 38.5885 20.625 39.9557 22.1875 40.9453C23.4115 41.7786 24.7005 42.2734 26.0547 42.4297L25.7422 49.8125C24.1797 50.8281 22.526 51.5573 20.7812 52C19.0625 52.4688 16.6016 52.7031 13.3984 52.7031C10.2214 52.7031 7.38281 52.0781 4.88281 50.8281C1.8099 49.2917 0.273438 47.1562 0.273438 44.4219C0.273438 41.0104 0.950521 32.5859 2.30469 19.1484C3.03385 12.1432 3.61979 7.2474 4.0625 4.46094C6.74479 2.0651 10.7031 0.867188 15.9375 0.867188C19.7396 0.867188 22.8906 1.57031 25.3906 2.97656L27.5391 10.1641L26.1719 15.9062C26.0677 16.2969 26.0156 16.6745 26.0156 17.0391C26.0156 17.9505 26.5365 18.4193 27.5781 18.4453L31.2891 3.01562C32.3568 2.44271 33.75 1.94792 35.4688 1.53125C37.1875 1.08854 39.0625 0.867188 41.0938 0.867188C44.8958 0.867188 47.7083 1.51823 49.5312 2.82031C51.3802 4.09635 52.474 6.25781 52.8125 9.30469C52.8906 9.8776 53.0078 10.8281 53.1641 12.1562C55.5339 32.5208 56.7188 44.513 56.7188 48.1328C53.8281 51.1797 49.6615 52.7031 44.2188 52.7031ZM71.5625 40.125C72.2917 40.125 72.6562 39.7214 72.6562 38.9141C66.901 35.0859 62.5 30.3854 59.4531 24.8125C56.4323 19.2396 54.7396 13.0938 54.375 6.375C55.5469 4.63021 57.2917 3.28906 59.6094 2.35156C61.9531 1.41406 64.362 0.945312 66.8359 0.945312C70.0911 0.945312 72.8906 1.58333 75.2344 2.85938C76.6927 6.79167 77.8906 10.5417 78.8281 14.1094C77.5521 19.7344 76.9141 22.5469 76.9141 22.5469C76.8099 22.9375 76.7578 23.3021 76.7578 23.6406C76.7578 24.526 77.2266 24.9688 78.1641 24.9688C78.4766 23.9792 79.2057 20.9844 80.3516 15.9844C80.638 14.7083 81.0156 12.9375 81.4844 10.6719C81.9792 8.38021 82.6042 5.6849 83.3594 2.58594C85.7552 1.4401 88.4896 0.867188 91.5625 0.867188C95.2865 0.867188 98.2552 1.77865 100.469 3.60156C102.682 5.39844 103.789 8.0026 103.789 11.4141C103.789 16.4141 102.383 21.2839 99.5703 26.0234C97.3568 29.7734 94.4271 33.276 90.7812 36.5312V49.4219C88.6198 50.75 86.6797 51.6224 84.9609 52.0391C83.2422 52.4818 81.4323 52.7031 79.5312 52.7031C75.9375 52.7031 73.112 52.026 71.0547 50.6719C68.9974 49.3177 67.9688 47.2995 67.9688 44.6172V37.7422C68.4375 38.2109 69.0365 38.7318 69.7656 39.3047C70.4948 39.8516 71.0938 40.125 71.5625 40.125ZM145.078 37.7812C145.938 37.625 146.367 37.1953 146.367 36.4922C146.367 35.763 146.133 34.9557 145.664 34.0703C145.221 33.1589 144.557 32.2995 143.672 31.4922C141.354 29.4089 138.216 28.3672 134.258 28.3672C132.305 28.3672 130.482 28.6927 128.789 29.3438C126.992 28.4323 125.56 26.987 124.492 25.0078C123.424 23.0286 122.891 20.8932 122.891 18.6016C122.891 12.612 125.391 7.98958 130.391 4.73438C134.688 1.94792 139.987 0.554688 146.289 0.554688C150.977 0.554688 154.922 1.0625 158.125 2.07812C161.328 3.06771 163.945 4.34375 165.977 5.90625C166.576 7.625 166.875 9.40885 166.875 11.2578C166.875 13.1068 166.628 14.7865 166.133 16.2969C165.638 17.8073 164.922 19.0182 163.984 19.9297C163.099 19.2786 161.497 18.6146 159.18 17.9375C156.862 17.2604 154.753 16.9219 152.852 16.9219C150.951 16.9219 149.674 17.0391 149.023 17.2734C148.398 17.5078 148.086 17.8724 148.086 18.3672C148.086 18.6016 148.125 18.8229 148.203 19.0312C149.115 18.7969 150.286 18.6797 151.719 18.6797C156.797 18.6797 160.938 19.8776 164.141 22.2734C167.917 25.138 169.805 29.4349 169.805 35.1641C169.805 40.2161 167.76 44.4089 163.672 47.7422C159.245 51.3099 153.294 53.0938 145.82 53.0938C141.706 53.0938 138.138 52.7812 135.117 52.1562C132.096 51.5573 129.154 50.4896 126.289 48.9531C124.336 46.1146 123.359 43.237 123.359 40.3203C123.359 37.3776 124.362 34.9427 126.367 33.0156C128.372 31.0885 130.833 30.125 133.75 30.125C136.693 30.125 139.089 30.724 140.938 31.9219C142.812 33.1198 144.193 35.0729 145.078 37.7812ZM194.609 9.03125V10.7891C193.568 12.9505 192.773 14.6432 192.227 15.8672C191.68 17.0651 191.406 17.8854 191.406 18.3281C191.406 19.0833 191.836 19.4609 192.695 19.4609L200.391 2.58594C202.188 1.41406 204.635 0.828125 207.734 0.828125C210.859 0.828125 213.542 1.6875 215.781 3.40625C218.229 5.33333 219.453 7.96354 219.453 11.2969C219.453 14.0833 218.503 16.8307 216.602 19.5391C214.701 22.2214 212.214 24.5521 209.141 26.5312C207.708 25.724 206.419 25.3203 205.273 25.3203C204.128 25.3203 203.555 25.8802 203.555 27C204.753 27.2344 205.833 27.5729 206.797 28.0156C207.786 28.4323 208.945 29.2526 210.273 30.4766L220.664 40.0469C219.909 48.4844 215.69 52.7031 208.008 52.7031C205.169 52.7031 202.734 51.974 200.703 50.5156C198.307 48.8229 196.432 46.2448 195.078 42.7812L191.445 33.7188H191.25C190.391 33.7188 189.961 34.0833 189.961 34.8125C189.961 35.2812 190.326 36.4141 191.055 38.2109C191.784 40.1641 192.878 42.7682 194.336 46.0234V49.0312C191.602 51.4792 187.63 52.7031 182.422 52.7031C179.609 52.7031 177.201 52.0651 175.195 50.7891C172.93 49.4089 171.797 47.4427 171.797 44.8906V4.57812C174.479 2.13021 178.555 0.90625 184.023 0.90625C186.862 0.90625 189.271 1.50521 191.25 2.70312C193.49 4.13542 194.609 6.24479 194.609 9.03125ZM245 8.67969V49.0312C243.802 50.0729 242.201 50.9453 240.195 51.6484C238.19 52.3516 235.755 52.7031 232.891 52.7031C230.026 52.7031 227.591 52.0651 225.586 50.7891C223.32 49.4089 222.188 47.4557 222.188 44.9297V4.57812C223.385 3.53646 224.987 2.66406 226.992 1.96094C228.997 1.25781 231.419 0.90625 234.258 0.90625C237.096 0.90625 239.557 1.53125 241.641 2.78125C243.88 4.21354 245 6.17969 245 8.67969ZM256.953 52.0391C254.062 52.0391 251.823 51.2708 250.234 49.7344C248.672 48.1979 247.891 45.8802 247.891 42.7812V4.57812C249.271 3.40625 250.951 2.50781 252.93 1.88281C254.935 1.23177 257.005 0.90625 259.141 0.90625C262.292 0.90625 264.961 1.6875 267.148 3.25C269.518 5.02083 270.703 7.46875 270.703 10.5938V31.9609C269.245 32.0911 267.812 32.5078 266.406 33.2109C265 33.888 264.297 34.5911 264.297 35.3203C264.297 35.763 264.544 36.1406 265.039 36.4531C267.617 34.2917 271.445 33.2109 276.523 33.2109H285.781C287.5 36.2318 288.359 39.3177 288.359 42.4688C288.359 44.0312 288.086 45.763 287.539 47.6641C286.992 49.5651 286.263 51.0234 285.352 52.0391H256.953ZM299.062 52.0391C296.172 52.0391 293.932 51.2708 292.344 49.7344C290.781 48.1979 290 45.8802 290 42.7812V4.57812C291.38 3.40625 293.06 2.50781 295.039 1.88281C297.044 1.23177 299.115 0.90625 301.25 0.90625C304.401 0.90625 307.07 1.6875 309.258 3.25C311.628 5.02083 312.812 7.46875 312.812 10.5938V31.9609C311.354 32.0911 309.922 32.5078 308.516 33.2109C307.109 33.888 306.406 34.5911 306.406 35.3203C306.406 35.763 306.654 36.1406 307.148 36.4531C309.727 34.2917 313.555 33.2109 318.633 33.2109H327.891C329.609 36.2318 330.469 39.3177 330.469 42.4688C330.469 44.0312 330.195 45.763 329.648 47.6641C329.102 49.5651 328.372 51.0234 327.461 52.0391H299.062ZM352.734 37.7812C353.594 37.625 354.023 37.1953 354.023 36.4922C354.023 35.763 353.789 34.9557 353.32 34.0703C352.878 33.1589 352.214 32.2995 351.328 31.4922C349.01 29.4089 345.872 28.3672 341.914 28.3672C339.961 28.3672 338.138 28.6927 336.445 29.3438C334.648 28.4323 333.216 26.987 332.148 25.0078C331.081 23.0286 330.547 20.8932 330.547 18.6016C330.547 12.612 333.047 7.98958 338.047 4.73438C342.344 1.94792 347.643 0.554688 353.945 0.554688C358.633 0.554688 362.578 1.0625 365.781 2.07812C368.984 3.06771 371.602 4.34375 373.633 5.90625C374.232 7.625 374.531 9.40885 374.531 11.2578C374.531 13.1068 374.284 14.7865 373.789 16.2969C373.294 17.8073 372.578 19.0182 371.641 19.9297C370.755 19.2786 369.154 18.6146 366.836 17.9375C364.518 17.2604 362.409 16.9219 360.508 16.9219C358.607 16.9219 357.331 17.0391 356.68 17.2734C356.055 17.5078 355.742 17.8724 355.742 18.3672C355.742 18.6016 355.781 18.8229 355.859 19.0312C356.771 18.7969 357.943 18.6797 359.375 18.6797C364.453 18.6797 368.594 19.8776 371.797 22.2734C375.573 25.138 377.461 29.4349 377.461 35.1641C377.461 40.2161 375.417 44.4089 371.328 47.7422C366.901 51.3099 360.951 53.0938 353.477 53.0938C349.362 53.0938 345.794 52.7812 342.773 52.1562C339.753 51.5573 336.81 50.4896 333.945 48.9531C331.992 46.1146 331.016 43.237 331.016 40.3203C331.016 37.3776 332.018 34.9427 334.023 33.0156C336.029 31.0885 338.49 30.125 341.406 30.125C344.349 30.125 346.745 30.724 348.594 31.9219C350.469 33.1198 351.849 35.0729 352.734 37.7812Z" fill="white"/>
</svg>
