<svg width="306" height="64" viewBox="0 0 306 64" fill="none" xmlns="http://www.w3.org/2000/svg">
<path d="M26.7188 44.9375C27.75 44.75 28.2656 44.2344 28.2656 43.3906C28.2656 42.5156 27.9844 41.5469 27.4219 40.4844C26.8906 39.3906 26.0938 38.3594 25.0312 37.3906C22.25 34.8906 18.4844 33.6406 13.7344 33.6406C11.3906 33.6406 9.20312 34.0312 7.17188 34.8125C5.01562 33.7188 3.29688 31.9844 2.01562 29.6094C0.734375 27.2344 0.09375 24.6719 0.09375 21.9219C0.09375 14.7344 3.09375 9.1875 9.09375 5.28125C14.25 1.9375 20.6094 0.265625 28.1719 0.265625C33.7969 0.265625 38.5312 0.875 42.375 2.09375C46.2188 3.28125 49.3594 4.8125 51.7969 6.6875C52.5156 8.75 52.875 10.8906 52.875 13.1094C52.875 15.3281 52.5781 17.3438 51.9844 19.1562C51.3906 20.9688 50.5312 22.4219 49.4062 23.5156C48.3438 22.7344 46.4219 21.9375 43.6406 21.125C40.8594 20.3125 38.3281 19.9062 36.0469 19.9062C33.7656 19.9062 32.2344 20.0469 31.4531 20.3281C30.7031 20.6094 30.3281 21.0469 30.3281 21.6406C30.3281 21.9219 30.375 22.1875 30.4688 22.4375C31.5625 22.1562 32.9688 22.0156 34.6875 22.0156C40.7812 22.0156 45.75 23.4531 49.5938 26.3281C54.125 29.7656 56.3906 34.9219 56.3906 41.7969C56.3906 47.8594 53.9375 52.8906 49.0312 56.8906C43.7188 61.1719 36.5781 63.3125 27.6094 63.3125C22.6719 63.3125 18.3906 62.9375 14.7656 62.1875C11.1406 61.4688 7.60938 60.1875 4.17188 58.3438C1.82812 54.9375 0.65625 51.4844 0.65625 47.9844C0.65625 44.4531 1.85938 41.5312 4.26562 39.2188C6.67188 36.9062 9.625 35.75 13.125 35.75C16.6562 35.75 19.5312 36.4688 21.75 37.9062C24 39.3438 25.6562 41.6875 26.7188 44.9375ZM86.1562 10.4375V12.5469C84.9062 15.1406 83.9531 17.1719 83.2969 18.6406C82.6406 20.0781 82.3125 21.0625 82.3125 21.5938C82.3125 22.5 82.8281 22.9531 83.8594 22.9531L93.0938 2.70312C95.25 1.29688 98.1875 0.59375 101.906 0.59375C105.656 0.59375 108.875 1.625 111.562 3.6875C114.5 6 115.969 9.15625 115.969 13.1562C115.969 16.5 114.828 19.7969 112.547 23.0469C110.266 26.2656 107.281 29.0625 103.594 31.4375C101.875 30.4688 100.328 29.9844 98.9531 29.9844C97.5781 29.9844 96.8906 30.6562 96.8906 32C98.3281 32.2812 99.625 32.6875 100.781 33.2188C101.969 33.7188 103.359 34.7031 104.953 36.1719L117.422 47.6562C116.516 57.7812 111.453 62.8438 102.234 62.8438C98.8281 62.8438 95.9062 61.9688 93.4688 60.2188C90.5938 58.1875 88.3438 55.0938 86.7188 50.9375L82.3594 40.0625H82.125C81.0938 40.0625 80.5781 40.5 80.5781 41.375C80.5781 41.9375 81.0156 43.2969 81.8906 45.4531C82.7656 47.7969 84.0781 50.9219 85.8281 54.8281V58.4375C82.5469 61.375 77.7812 62.8438 71.5312 62.8438C68.1562 62.8438 65.2656 62.0781 62.8594 60.5469C60.1406 58.8906 58.7812 56.5312 58.7812 53.4688V5.09375C62 2.15625 66.8906 0.6875 73.4531 0.6875C76.8594 0.6875 79.75 1.40625 82.125 2.84375C84.8125 4.5625 86.1562 7.09375 86.1562 10.4375ZM146.625 10.0156V58.4375C145.188 59.6875 143.266 60.7344 140.859 61.5781C138.453 62.4219 135.531 62.8438 132.094 62.8438C128.656 62.8438 125.734 62.0781 123.328 60.5469C120.609 58.8906 119.25 56.5469 119.25 53.5156V5.09375C120.688 3.84375 122.609 2.79688 125.016 1.95312C127.422 1.10938 130.328 0.6875 133.734 0.6875C137.141 0.6875 140.094 1.4375 142.594 2.9375C145.281 4.65625 146.625 7.01562 146.625 10.0156ZM160.969 62.0469C157.5 62.0469 154.812 61.125 152.906 59.2812C151.031 57.4375 150.094 54.6562 150.094 50.9375V5.09375C151.75 3.6875 153.766 2.60938 156.141 1.85938C158.547 1.07812 161.031 0.6875 163.594 0.6875C167.375 0.6875 170.578 1.625 173.203 3.5C176.047 5.625 177.469 8.5625 177.469 12.3125V37.9531C175.719 38.1094 174 38.6094 172.312 39.4531C170.625 40.2656 169.781 41.1094 169.781 41.9844C169.781 42.5156 170.078 42.9688 170.672 43.3438C173.766 40.75 178.359 39.4531 184.453 39.4531H195.562C197.625 43.0781 198.656 46.7812 198.656 50.5625C198.656 52.4375 198.328 54.5156 197.672 56.7969C197.016 59.0781 196.141 60.8281 195.047 62.0469H160.969ZM211.5 62.0469C208.031 62.0469 205.344 61.125 203.438 59.2812C201.562 57.4375 200.625 54.6562 200.625 50.9375V5.09375C202.281 3.6875 204.297 2.60938 206.672 1.85938C209.078 1.07812 211.562 0.6875 214.125 0.6875C217.906 0.6875 221.109 1.625 223.734 3.5C226.578 5.625 228 8.5625 228 12.3125V37.9531C226.25 38.1094 224.531 38.6094 222.844 39.4531C221.156 40.2656 220.312 41.1094 220.312 41.9844C220.312 42.5156 220.609 42.9688 221.203 43.3438C224.297 40.75 228.891 39.4531 234.984 39.4531H246.094C248.156 43.0781 249.188 46.7812 249.188 50.5625C249.188 52.4375 248.859 54.5156 248.203 56.7969C247.547 59.0781 246.672 60.8281 245.578 62.0469H211.5ZM275.906 44.9375C276.938 44.75 277.453 44.2344 277.453 43.3906C277.453 42.5156 277.172 41.5469 276.609 40.4844C276.078 39.3906 275.281 38.3594 274.219 37.3906C271.438 34.8906 267.672 33.6406 262.922 33.6406C260.578 33.6406 258.391 34.0312 256.359 34.8125C254.203 33.7188 252.484 31.9844 251.203 29.6094C249.922 27.2344 249.281 24.6719 249.281 21.9219C249.281 14.7344 252.281 9.1875 258.281 5.28125C263.438 1.9375 269.797 0.265625 277.359 0.265625C282.984 0.265625 287.719 0.875 291.562 2.09375C295.406 3.28125 298.547 4.8125 300.984 6.6875C301.703 8.75 302.062 10.8906 302.062 13.1094C302.062 15.3281 301.766 17.3438 301.172 19.1562C300.578 20.9688 299.719 22.4219 298.594 23.5156C297.531 22.7344 295.609 21.9375 292.828 21.125C290.047 20.3125 287.516 19.9062 285.234 19.9062C282.953 19.9062 281.422 20.0469 280.641 20.3281C279.891 20.6094 279.516 21.0469 279.516 21.6406C279.516 21.9219 279.562 22.1875 279.656 22.4375C280.75 22.1562 282.156 22.0156 283.875 22.0156C289.969 22.0156 294.938 23.4531 298.781 26.3281C303.312 29.7656 305.578 34.9219 305.578 41.7969C305.578 47.8594 303.125 52.8906 298.219 56.8906C292.906 61.1719 285.766 63.3125 276.797 63.3125C271.859 63.3125 267.578 62.9375 263.953 62.1875C260.328 61.4688 256.797 60.1875 253.359 58.3438C251.016 54.9375 249.844 51.4844 249.844 47.9844C249.844 44.4531 251.047 41.5312 253.453 39.2188C255.859 36.9062 258.812 35.75 262.312 35.75C265.844 35.75 268.719 36.4688 270.938 37.9062C273.188 39.3438 274.844 41.6875 275.906 44.9375Z" fill="white"/>
</svg>
