<svg width="1078" height="166" viewBox="0 0 1078 166" fill="none" xmlns="http://www.w3.org/2000/svg">
<path d="M138.184 164.197C127.035 164.197 118.286 162.366 111.938 158.704C105.103 154.879 101.4 149.467 100.83 142.469L99.7314 130.994C107.218 129.204 113.525 124.565 118.652 117.078C120.036 114.962 120.728 113.131 120.728 111.585C120.728 109.469 119.67 108.411 117.554 108.411H117.188C117.106 108.493 116.943 108.533 116.699 108.533C111.003 120.496 101.766 126.478 88.9893 126.478C82.4788 126.478 76.9043 125.053 72.2656 122.205C67.7083 119.357 63.5173 114.433 59.6924 107.435H58.96C56.7627 107.435 55.6641 108.37 55.6641 110.242C55.6641 111.544 56.1523 113.009 57.1289 114.637C60.3841 120.089 64.4531 124.362 69.3359 127.454C73.1608 130.058 77.1891 131.604 81.4209 132.093L80.4443 155.164C75.5615 158.338 70.3939 160.617 64.9414 162C59.5703 163.465 51.8799 164.197 41.8701 164.197C31.9417 164.197 23.0713 162.244 15.2588 158.338C5.65592 153.536 0.854492 146.863 0.854492 138.318C0.854492 127.658 2.97038 101.331 7.20215 59.3389C9.48079 37.4476 11.3118 22.1481 12.6953 13.4404C21.0775 5.95345 33.4473 2.20996 49.8047 2.20996C61.6862 2.20996 71.5332 4.40723 79.3457 8.80176L86.0596 31.2627L81.7871 49.207C81.4616 50.4277 81.2988 51.6077 81.2988 52.7471C81.2988 55.5954 82.9264 57.0602 86.1816 57.1416L97.7783 8.92383C101.115 7.13346 105.469 5.58724 110.84 4.28516C116.211 2.90169 122.07 2.20996 128.418 2.20996C140.299 2.20996 149.089 4.24447 154.785 8.31348C160.563 12.3011 163.981 19.0557 165.039 28.5771C165.283 30.3675 165.649 33.3379 166.138 37.4883C173.543 101.128 177.246 138.603 177.246 149.915C168.213 159.437 155.192 164.197 138.184 164.197ZM223.633 124.891C225.911 124.891 227.051 123.629 227.051 121.106C209.066 109.144 195.312 94.4544 185.791 77.0391C176.351 59.6237 171.061 40.418 169.922 19.4219C173.584 13.9694 179.036 9.77832 186.279 6.84863C193.604 3.91895 201.131 2.4541 208.862 2.4541C219.035 2.4541 227.783 4.44792 235.107 8.43555C239.665 20.724 243.408 32.4427 246.338 43.5918C242.35 61.1699 240.356 69.959 240.356 69.959C240.031 71.1797 239.868 72.319 239.868 73.377C239.868 76.1439 241.333 77.5273 244.263 77.5273C245.239 74.4349 247.518 65.0762 251.099 49.4512C251.994 45.4635 253.174 39.9297 254.639 32.8496C256.185 25.6882 258.138 17.2653 260.498 7.58105C267.985 4.00033 276.53 2.20996 286.133 2.20996C297.77 2.20996 307.048 5.05827 313.965 10.7549C320.882 16.3701 324.341 24.5081 324.341 35.1689C324.341 50.7939 319.946 66.012 311.157 80.8232C304.24 92.542 295.085 103.488 283.691 113.66V153.943C276.937 158.094 270.874 160.82 265.503 162.122C260.132 163.506 254.476 164.197 248.535 164.197C237.305 164.197 228.475 162.081 222.046 157.85C215.617 153.618 212.402 147.311 212.402 138.929V117.444C213.867 118.909 215.739 120.537 218.018 122.327C220.296 124.036 222.168 124.891 223.633 124.891ZM455.444 164.075C447.55 164.075 440.959 163.465 435.669 162.244C428.345 160.698 422.974 158.297 419.556 155.042C411.906 138.847 405.355 121.106 399.902 101.819C392.334 75.1266 387.044 47.5794 384.033 19.1777C387.695 13.8066 392.7 9.65625 399.048 6.72656C405.396 3.71549 412.476 2.20996 420.288 2.20996C432.007 2.20996 441.203 4.44792 447.876 8.92383C454.631 13.3997 458.008 19.7881 458.008 28.0889C457.438 34.2738 456.909 43.3477 456.421 55.3105C456.014 67.2734 455.811 78.097 455.811 87.7812C455.811 90.4668 456.055 92.5827 456.543 94.1289C457.113 95.5938 458.252 96.3262 459.961 96.3262C460.612 96.3262 461.426 96.2041 462.402 95.96C462.321 95.2275 462.28 94.0068 462.28 92.2979V88.0254C462.28 76.2253 462.687 62.6348 463.501 47.2539C464.315 31.7917 465.291 20.2764 466.431 12.708C473.836 8.15072 482.544 5.87207 492.554 5.87207C502.563 5.87207 510.62 7.25553 516.724 10.0225C524.048 13.4404 527.913 18.4453 528.32 25.0371C527.913 33.0124 527.14 40.8656 526.001 48.5967C524.943 56.3278 523.641 65.2389 522.095 75.3301C520.549 85.4212 519.572 92.0944 519.165 95.3496C519.816 95.6751 520.671 95.8379 521.729 95.8379C522.786 95.8379 523.763 95.431 524.658 94.6172C525.553 93.8034 526.286 91.8503 526.855 88.7578C529.378 75.737 531.453 62.0244 533.081 47.6201C534.709 33.1344 535.767 20.5205 536.255 9.77832C543.742 4.73275 554.077 2.20996 567.261 2.20996C577.922 2.20996 586.426 5.05827 592.773 10.7549C599.121 16.3701 602.295 23.9385 602.295 33.46C602.295 39.8076 599.284 56.4499 593.262 83.3867C590.169 97.5469 587.199 109.673 584.351 119.764C581.502 129.773 579.183 136.813 577.393 140.882C573.649 149.101 568.034 155.042 560.547 158.704C553.141 162.285 543.66 164.075 532.104 164.075C527.466 164.075 522.095 163.383 515.991 162C509.969 160.617 505.371 159.07 502.197 157.361C500.57 154.839 498.739 151.014 496.704 145.887C494.67 140.76 493.408 136.894 492.92 134.29C489.746 134.371 488.159 136.08 488.159 139.417C488.159 142.021 489.421 146.823 491.943 153.821C483.398 160.657 471.232 164.075 455.444 164.075ZM687.378 77.7715C687.378 69.6335 687.012 64.0589 686.279 61.0479C685.547 57.9554 684.204 56.4092 682.251 56.4092C681.03 56.4092 679.932 56.8161 678.955 57.6299C679.118 59.0947 679.362 61.0479 679.688 63.4893C680.013 65.9307 680.176 71.139 680.176 79.1143V87.0488C680.176 92.5827 680.054 96.611 679.81 99.1338C679.565 101.657 679.362 103.813 679.199 105.604C679.118 106.58 679.036 107.557 678.955 108.533C679.932 109.347 681.03 109.754 682.251 109.754C684.204 109.754 685.547 108.248 686.279 105.237C687.012 102.145 687.378 96.5296 687.378 88.3916V77.7715ZM682.495 165.906C668.009 165.906 654.704 162.936 642.578 156.995C630.534 150.973 620.809 141.818 613.403 129.529C605.998 117.16 602.295 101.738 602.295 83.2646C602.295 56.4906 610.352 35.5758 626.465 20.5205C640.788 7.25553 659.22 0.623047 681.763 0.623047C706.258 0.623047 725.627 8.2321 739.868 23.4502C754.191 38.5869 761.353 58.5251 761.353 83.2646C761.353 110.771 753.703 131.767 738.403 146.253C724.487 159.355 705.851 165.906 682.495 165.906ZM836.304 75.208C836.629 75.4521 837.565 75.5742 839.111 75.5742C840.658 75.5742 841.838 74.9639 842.651 73.7432C843.465 72.5225 843.872 70.5286 843.872 67.7617V63.3672C843.872 60.4375 843.506 58.3623 842.773 57.1416C842.122 55.8395 840.983 55.1885 839.355 55.1885C837.809 55.1885 836.751 55.3512 836.182 55.6768C836.263 56.0837 836.304 56.7754 836.304 57.752V75.208ZM899.292 103.04L920.41 124.646C918.945 137.342 914.917 147.107 908.325 153.943C901.815 160.779 892.782 164.197 881.226 164.197C872.518 164.197 864.95 162.122 858.521 157.972C850.301 152.763 844.157 144.463 840.088 133.069L835.693 121.106C832.275 121.025 827.962 120.577 822.754 119.764C822.103 120.415 821.777 121.31 821.777 122.449C821.777 124.646 825.073 125.949 831.665 126.355L838.623 143.934V154.31C829.264 160.901 817.261 164.197 802.612 164.197C792.114 164.197 783.732 162.041 777.466 157.728C771.2 153.414 768.066 147.148 768.066 138.929V22.9619C768.066 19.3812 771.362 15.9225 777.954 12.5859C784.546 9.16797 793.172 6.44173 803.833 4.40723C814.494 2.29134 825.155 1.2334 835.815 1.2334C860.229 1.2334 879.313 6.23828 893.066 16.248C907.552 26.7461 914.795 41.5166 914.795 60.5596C914.795 71.4645 911.702 80.8232 905.518 88.6357C899.414 96.3669 891.683 101.738 882.324 104.749C882.324 107.353 883.87 108.655 886.963 108.655C890.137 108.655 894.246 106.784 899.292 103.04ZM996.338 27.7227V33.2158C993.083 39.9704 990.601 45.2601 988.892 49.085C987.183 52.8285 986.328 55.3919 986.328 56.7754C986.328 59.1354 987.671 60.3154 990.356 60.3154L1014.4 7.58105C1020.02 3.91895 1027.67 2.08789 1037.35 2.08789C1047.12 2.08789 1055.5 4.77344 1062.5 10.1445C1070.15 16.1667 1073.97 24.3861 1073.97 34.8027C1073.97 43.5104 1071 52.096 1065.06 60.5596C1059.12 68.9417 1051.35 76.2253 1041.75 82.4102C1037.27 79.8874 1033.24 78.626 1029.66 78.626C1026.08 78.626 1024.29 80.3757 1024.29 83.875C1028.04 84.6074 1031.41 85.6654 1034.42 87.0488C1037.52 88.3509 1041.14 90.9144 1045.29 94.7393L1077.76 124.646C1075.4 151.014 1062.22 164.197 1038.21 164.197C1029.34 164.197 1021.73 161.919 1015.38 157.361C1007.89 152.072 1002.03 144.015 997.803 133.191L986.45 104.871H985.84C983.154 104.871 981.812 106.01 981.812 108.289C981.812 109.754 982.951 113.294 985.229 118.909C987.508 125.013 990.926 133.151 995.483 143.323V152.723C986.938 160.372 974.528 164.197 958.252 164.197C949.463 164.197 941.935 162.203 935.669 158.216C928.589 153.903 925.049 147.758 925.049 139.783V13.8066C933.431 6.1569 946.167 2.33203 963.257 2.33203C972.127 2.33203 979.655 4.20378 985.84 7.94727C992.839 12.4232 996.338 19.015 996.338 27.7227Z" fill="white"/>
</svg>
